<?xml version="1.0" encoding="UTF-8" standalone="no"?>
<!-- Uploaded to: SVG Repo, www.svgrepo.com, Generator: SVG Repo Mixer Tools -->

<svg
   version="1.1"
   id="_x36_"
   viewBox="0 0 512 512"
   xml:space="preserve"
   sodipodi:docname="prover.svg"
   inkscape:version="1.3.2 (091e20e, 2023-11-25)"
   xmlns:inkscape="http://www.inkscape.org/namespaces/inkscape"
   xmlns:sodipodi="http://sodipodi.sourceforge.net/DTD/sodipodi-0.dtd"
   xmlns="http://www.w3.org/2000/svg"
   xmlns:svg="http://www.w3.org/2000/svg"><defs
   id="defs46" /><sodipodi:namedview
   id="namedview46"
   pagecolor="#ffffff"
   bordercolor="#000000"
   borderopacity="0.25"
   inkscape:showpageshadow="2"
   inkscape:pageopacity="0.0"
   inkscape:pagecheckerboard="0"
   inkscape:deskcolor="#d1d1d1"
   inkscape:zoom="1.4746094"
   inkscape:cx="255.66093"
   inkscape:cy="256"
   inkscape:window-width="1646"
   inkscape:window-height="1001"
   inkscape:window-x="0"
   inkscape:window-y="0"
   inkscape:window-maximized="1"
   inkscape:current-layer="_x36_" />
<g
   id="g46">
	<g
   id="g45">
		
		<rect
   x="26.286"
   y="7.752"
   style="fill:#26272B;"
   width="384.284"
   height="493.643"
   id="rect2" />
		<g
   id="g15">
			<rect
   x="42.536"
   y="53.052"
   style="fill:#545469;"
   width="350.496"
   height="112.659"
   id="rect3" />
			<g
   id="g14">
				<g
   id="g8">
					<rect
   x="73.204"
   y="70.89"
   style="fill:#CBDE80;"
   width="43.812"
   height="28.791"
   id="rect4" />
					<rect
   x="134.541"
   y="70.89"
   style="fill:#CBDE80;"
   width="43.812"
   height="28.791"
   id="rect5" />
					<rect
   x="195.878"
   y="70.89"
   style="fill:#649AA1;"
   width="43.812"
   height="28.791"
   id="rect6" />
					<rect
   x="257.215"
   y="70.89"
   style="fill:#649AA1;"
   width="43.812"
   height="28.791"
   id="rect7" />
					<rect
   x="318.551"
   y="70.89"
   style="fill:#CBDE80;"
   width="43.812"
   height="28.791"
   id="rect8" />
				</g>
				<g
   id="g13">
					<rect
   x="73.204"
   y="119.083"
   style="fill:#649AA1;"
   width="43.812"
   height="28.791"
   id="rect9" />
					<rect
   x="134.541"
   y="119.083"
   style="fill:#649AA1;"
   width="43.812"
   height="28.791"
   id="rect10" />
					<rect
   x="195.878"
   y="119.083"
   style="fill:#CBDE80;"
   width="43.812"
   height="28.791"
   id="rect11" />
					<rect
   x="257.215"
   y="119.083"
   style="fill:#649AA1;"
   width="43.812"
   height="28.791"
   id="rect12" />
					<rect
   x="318.551"
   y="119.083"
   style="fill:#649AA1;"
   width="43.812"
   height="28.791"
   id="rect13" />
				</g>
			</g>
		</g>
		<g
   id="g27">
			<rect
   x="42.536"
   y="203.264"
   style="fill:#545469;"
   width="350.496"
   height="112.659"
   id="rect15" />
			<g
   id="g26">
				<g
   id="g20">
					<rect
   x="318.551"
   y="221.102"
   style="fill:#CBDE80;"
   width="43.812"
   height="28.791"
   id="rect16" />
					<rect
   x="257.215"
   y="221.102"
   style="fill:#CBDE80;"
   width="43.812"
   height="28.791"
   id="rect17" />
					<rect
   x="195.878"
   y="221.102"
   style="fill:#649AA1;"
   width="43.812"
   height="28.791"
   id="rect18" />
					<rect
   x="134.541"
   y="221.102"
   style="fill:#649AA1;"
   width="43.812"
   height="28.791"
   id="rect19" />
					<rect
   x="73.204"
   y="221.102"
   style="fill:#CBDE80;"
   width="43.812"
   height="28.791"
   id="rect20" />
				</g>
				<g
   id="g25">
					<rect
   x="318.551"
   y="269.295"
   style="fill:#649AA1;"
   width="43.812"
   height="28.791"
   id="rect21" />
					<rect
   x="257.215"
   y="269.295"
   style="fill:#649AA1;"
   width="43.812"
   height="28.791"
   id="rect22" />
					<rect
   x="195.878"
   y="269.295"
   style="fill:#CBDE80;"
   width="43.812"
   height="28.791"
   id="rect23" />
					<rect
   x="134.541"
   y="269.295"
   style="fill:#649AA1;"
   width="43.812"
   height="28.791"
   id="rect24" />
					<rect
   x="73.204"
   y="269.295"
   style="fill:#649AA1;"
   width="43.812"
   height="28.791"
   id="rect25" />
				</g>
			</g>
		</g>
		<g
   id="g39">
			<rect
   x="42.536"
   y="343.463"
   style="fill:#545469;"
   width="350.496"
   height="112.659"
   id="rect27" />
			<g
   id="g38">
				<g
   id="g32">
					<rect
   x="73.204"
   y="409.493"
   style="fill:#CBDE80;"
   width="43.812"
   height="28.791"
   id="rect28" />
					<rect
   x="134.541"
   y="409.493"
   style="fill:#CBDE80;"
   width="43.812"
   height="28.791"
   id="rect29" />
					<rect
   x="195.878"
   y="409.493"
   style="fill:#649AA1;"
   width="43.812"
   height="28.791"
   id="rect30" />
					<rect
   x="257.215"
   y="409.493"
   style="fill:#649AA1;"
   width="43.812"
   height="28.791"
   id="rect31" />
					<rect
   x="318.551"
   y="409.493"
   style="fill:#CBDE80;"
   width="43.812"
   height="28.791"
   id="rect32" />
				</g>
				<g
   id="g37">
					<rect
   x="73.204"
   y="361.3"
   style="fill:#649AA1;"
   width="43.812"
   height="28.791"
   id="rect33" />
					<rect
   x="134.541"
   y="361.3"
   style="fill:#649AA1;"
   width="43.812"
   height="28.791"
   id="rect34" />
					<rect
   x="195.878"
   y="361.3"
   style="fill:#CBDE80;"
   width="43.812"
   height="28.791"
   id="rect35" />
					<rect
   x="257.215"
   y="361.3"
   style="fill:#649AA1;"
   width="43.812"
   height="28.791"
   id="rect36" />
					<rect
   x="318.551"
   y="361.3"
   style="fill:#649AA1;"
   width="43.812"
   height="28.791"
   id="rect37" />
				</g>
			</g>
		</g>
		<g
   id="g40">
			<rect
   x="13.745"
   y="80.121"
   style="fill:#26272B;"
   width="18.777"
   height="45.064"
   id="rect39" />
			<rect
   x="401.168"
   y="80.121"
   style="fill:#26272B;"
   width="18.776"
   height="45.064"
   id="rect40" />
		</g>
		<g
   id="g42">
			<rect
   x="13.745"
   y="237.062"
   style="fill:#26272B;"
   width="18.777"
   height="45.064"
   id="rect41" />
			<rect
   x="401.168"
   y="237.062"
   style="fill:#26272B;"
   width="18.776"
   height="45.064"
   id="rect42" />
		</g>
		<g
   id="g44">
			<rect
   x="13.745"
   y="378.825"
   style="fill:#26272B;"
   width="18.777"
   height="45.064"
   id="rect43" />
			<rect
   x="401.168"
   y="378.825"
   style="fill:#26272B;"
   width="18.776"
   height="45.064"
   id="rect44" />
		</g>
	</g>
	
</g>
</svg>
